<svg xmlns="http://www.w3.org/2000/svg" width="31.902" height="20" viewBox="0 0 31.902 20">
  <path id="Icon_awesome-behance" data-name="Icon awesome-behance" d="M12.85,14.263a4.2,4.2,0,0,0,2.681-4.1c0-3.91-2.913-4.863-6.275-4.863H0V24.93H9.515c3.567,0,6.918-1.711,6.918-5.7a4.73,4.73,0,0,0-3.583-4.968ZM4.315,8.652H8.363c1.556,0,2.958.438,2.958,2.243,0,1.667-1.091,2.337-2.631,2.337H4.315V8.652ZM8.928,21.6H4.315V16.191h4.7c1.9,0,3.1.792,3.1,2.8,0,1.983-1.435,2.6-3.19,2.6ZM28.784,8.265H20.825V6.332h7.959ZM31.9,18.029c0-4.2-2.459-7.71-6.918-7.71-4.331,0-7.272,3.257-7.272,7.521,0,4.425,2.786,7.461,7.272,7.461a6.336,6.336,0,0,0,6.652-4.78H28.192a3.234,3.234,0,0,1-3.085,1.855c-2.287,0-3.489-1.34-3.489-3.617H31.869C31.886,18.528,31.9,18.279,31.9,18.029ZM21.623,16.3a3.051,3.051,0,0,1,3.24-3.035c1.961,0,2.947,1.152,3.113,3.035Z" transform="translate(0 -5.302)"/>
</svg>
