<svg xmlns="http://www.w3.org/2000/svg" width="22.5" height="30" viewBox="0 0 22.5 30">
  <path id="Icon_awesome-hand-point-down" data-name="Icon awesome-hand-point-down" d="M17.12,27.375V18.631a7.962,7.962,0,0,0,1.46.829,2.814,2.814,0,0,0,3.92-2.585,2.5,2.5,0,0,0-1.7-2.344c-1.657-.71-3.769-4.608-4.531-6.3A2.812,2.812,0,0,0,13.7,6.563H3.645A1.4,1.4,0,0,0,2.256,7.75C1.832,10.494,0,11.369.011,15c0,.16-.011.777-.011.938,0,2.968,1.3,4.78,4.176,4.254a2.684,2.684,0,0,0,3.651.964,2.882,2.882,0,0,0,4.157.369v5.851A2.642,2.642,0,0,0,14.552,30,2.685,2.685,0,0,0,17.12,27.375ZM15.938,4.219V1.406A1.406,1.406,0,0,0,14.531,0H3.281A1.406,1.406,0,0,0,1.875,1.406V4.219A1.406,1.406,0,0,0,3.281,5.625h11.25A1.406,1.406,0,0,0,15.938,4.219ZM3.516,2.813A1.172,1.172,0,1,1,4.687,3.984,1.172,1.172,0,0,1,3.516,2.813Z" fill="#ffdf00"/>
</svg>
